
<svg width="1280px" height="769px" viewBox="-110 -568 1280 769" version="1.1" xmlns="http://www.w3.org/2000/svg" xmlns:xlink="http://www.w3.org/1999/xlink">
    <!-- Generator: Sketch 41.2 (35397) - http://www.bohemiancoding.com/sketch -->
    <desc>Created with Sketch.</desc>
    <defs></defs>
    <path d="M-110,-505.5498 C-110,-505.5498 -59.091,-506.0018 -30.375,-515.9108 C-1.66,-525.8198 47.326,-515.9108 47.326,-515.9108 L83.018,-537.6438 C83.018,-537.6438 87.866,-532.4558 98,-527.4488 C108.135,-522.4418 116.581,-547.7788 143.608,-547.7788 C170.634,-547.7788 248.335,-544.4008 256.781,-537.6438 C265.227,-530.8868 342.928,-562.9808 342.928,-562.9808 C342.928,-562.9808 383.468,-573.1158 402.049,-562.9808 C420.629,-552.8458 493.263,-567.4858 493.263,-567.4858 C493.263,-567.4858 567.586,-562.9808 613.193,-554.5348 C658.801,-546.0898 699.34,-529.0778 721.299,-527.4488 C743.259,-525.8198 760.149,-503.8608 771.974,-505.5498 C783.798,-507.2388 837.852,-500.4828 856.432,-492.0368 C875.013,-483.5908 913.863,-471.7668 949.335,-476.8338 C984.808,-481.9018 1037.172,-456.5648 1037.172,-456.5648 C1037.172,-456.5648 1101.359,-429.5378 1113.184,-431.2268 C1125.008,-432.9158 1170,-419.4028 1170,-419.4028 L1170,200 L-110,200 L-110,-505.5498 Z" id="6" stroke="none" fill="#034C8C" fill-rule="evenodd"></path>
    <path d="M-110,-256.7236 C-110,-256.7236 -28.686,-321.3876 -23.619,-340.1136 C-18.551,-358.8386 18.61,-380.5296 18.61,-380.5296 C18.61,-380.5296 52.174,-385.5346 67.596,-397.2146 C83.018,-408.8936 128.405,-413.8996 133.473,-422.2426 C138.54,-430.5846 202.728,-465.6236 217.931,-462.2866 C233.133,-458.9496 277.051,-447.2696 290.564,-452.2756 C304.078,-457.2806 361.509,-435.5906 361.509,-430.5846 C361.509,-425.5786 488.165,-421.4496 497.609,-428.4826 C507.054,-435.5166 582.068,-477.9376 639.5,-479.6056 C696.932,-481.2746 797.931,-420.3716 797.931,-420.3716 L958.65,-370.5426 L1168.926,-328.8046 L1170,200 L-110,200 L-110,-256.7236 Z" id="5" stroke="none" fill="#0378A6" fill-rule="evenodd"></path>
</svg>