
<svg width="1280px" height="296px" viewBox="-110 -96 1280 296" version="1.1" xmlns="http://www.w3.org/2000/svg" xmlns:xlink="http://www.w3.org/1999/xlink">
    <!-- Generator: Sketch 41.2 (35397) - http://www.bohemiancoding.com/sketch -->
    <desc>Created with Sketch.</desc>
    <defs></defs>
    <path d="M-110,21.7199993 C-110,21.7199993 28.701,-76.8878727 187.886,-56.1285346 C347.07,-35.3691965 587.998,35.5592459 691.253,28.6386623 C794.508,21.719285 1003.404,-22.3133352 1170,29.1127409 L1170,200 L-110,200 L-110,21.7199993 Z" id="2" stroke="none" fill="#49EDFF" fill-rule="evenodd"></path>
    <path d="M146,143.486 L146,75.486 L119,75.486 L187.612,-21.687 L257.757,-57.707 L439.754,-95.623 L511.794,12.438 L530,23.81 L612.271,61.486 L667,61.486 C667,61.486 767.728,75 784.79,88.27 C801.853,101.541 784.79,107.228 784.79,107.228 L775.976,103.475 L776.308,133.047 L575.722,147.602 L503.746,134.663 L426.917,179.951 L146,143.486 Z" id="House" stroke="none" fill="#034C8C" fill-rule="evenodd"></path>
    <path d="M-110,148.9352 C-110,148.9352 73.864,126.1862 123.155,120.4982 C172.445,114.8112 174.341,101.5402 198.987,109.1232 C223.632,116.7062 229.319,141.3522 267.236,137.5612 C305.152,133.7692 388.567,124.2892 401.838,135.6642 C415.108,147.0392 525.065,133.3822 568.668,127.8882 C612.271,122.3942 809.436,127.8882 809.436,127.8882 C809.436,127.8882 1082.793,120.7552 1170,101.7972 L1170,200 L-110,200 L-110,148.9352 Z" id="1" stroke="none" fill="#D3FBFF" fill-rule="evenodd"></path>
</svg>