<svg width="1281px" height="599px" viewBox="-111 -399 1281 599" version="1.1" xmlns="http://www.w3.org/2000/svg" xmlns:xlink="http://www.w3.org/1999/xlink">
    <!-- Generator: Sketch 41.2 (35397) - http://www.bohemiancoding.com/sketch -->
    <desc>Created with Sketch.</desc>
    <defs></defs>
    <path d="M1168.9258,-235.5527 C1168.9258,-235.5527 1116.5618,-260.8897 1116.5618,-264.4107 C1116.5618,-267.9327 1089.5348,-276.0917 1089.5348,-276.0917 L1038.8608,-281.1597 C1038.8608,-281.1597 947.6468,-318.3207 902.0388,-318.3207 C856.4318,-318.3207 777.0408,-352.1037 726.3668,-367.3067 C705.8038,-373.4757 684.6848,-377.6967 664.9278,-380.0847 C664.9638,-380.0877 664.9998,-393.9997 664.9998,-393.9997 L657.9998,-391.9997 L657.9998,-393.9997 L651.0628,-393.9997 L643.7438,-398.3457 L622.2178,-390.4227 L615.9998,-384.9997 L618.9388,-382.2767 C608.9698,-381.8857 600.1448,-380.8297 592.9238,-379.1307 C564.2078,-372.3737 498.8468,-349.4157 498.8468,-349.4157 L400.0558,-336.5857 C400.0558,-336.5857 321.0658,-325.1877 297.4168,-303.2287 C273.7688,-281.2687 220.0508,-293.7767 189.6458,-290.3987 C159.2408,-287.0197 76.7428,-246.9997 76.7428,-246.9997 C76.7428,-246.9997 15.3978,-211.0657 -16.9152,-194.1737 C-49.2282,-177.2817 -110.0002,-174.9297 -110.0002,-174.9297 L-110.0002,200 L1169.9998,200 L1168.9258,-235.5527 Z" id="4" stroke="none" fill="#049DBF" fill-rule="evenodd"></path>
    <path d="M-110,-82.9556587 C-110,-82.9556587 179.08,-172.479659 283.808,-179.236659 C388.536,-185.993659 430.764,-199.167659 430.764,-199.167659 C430.764,-199.167659 530.647,-221.466659 553.339,-216.398659 C576.032,-211.330659 608.126,-243.425659 630.085,-245.113659 C652.044,-246.803659 744.947,-304.234659 785.487,-300.856659 C826.027,-297.477659 934.133,-273.829659 947.646,-275.518659 C961.159,-277.208659 972.983,-263.694659 972.983,-263.694659 C972.983,-263.694659 1137.291,-263.694659 1170,-243.425659 L1170,200 L-110,200 L-110,-82.9556587 Z" id="3" stroke="none" fill="#04C4D9" fill-rule="evenodd"></path>
</svg>