<svg width="1281px" height="769px" viewBox="-111 -568 1281 769" version="1.1" xmlns="http://www.w3.org/2000/svg" xmlns:xlink="http://www.w3.org/1999/xlink">
    <!-- Generator: Sketch 41.2 (35397) - http://www.bohemiancoding.com/sketch -->
    <desc>Created with Sketch.</desc>
    <defs></defs>
    <path d="M-110,-505.5498 C-110,-505.5498 -59.091,-506.0018 -30.375,-515.9108 C-1.66,-525.8198 47.326,-515.9108 47.326,-515.9108 L83.018,-537.6438 C83.018,-537.6438 87.866,-532.4558 98,-527.4488 C108.135,-522.4418 116.581,-547.7788 143.608,-547.7788 C170.634,-547.7788 248.335,-544.4008 256.781,-537.6438 C265.227,-530.8868 342.928,-562.9808 342.928,-562.9808 C342.928,-562.9808 383.468,-573.1158 402.049,-562.9808 C420.629,-552.8458 493.263,-567.4858 493.263,-567.4858 C493.263,-567.4858 567.586,-562.9808 613.193,-554.5348 C658.801,-546.0898 699.34,-529.0778 721.299,-527.4488 C743.259,-525.8198 760.149,-503.8608 771.974,-505.5498 C783.798,-507.2388 837.852,-500.4828 856.432,-492.0368 C875.013,-483.5908 913.863,-471.7668 949.335,-476.8338 C984.808,-481.9018 1037.172,-456.5648 1037.172,-456.5648 C1037.172,-456.5648 1101.359,-429.5378 1113.184,-431.2268 C1125.008,-432.9158 1170,-419.4028 1170,-419.4028 L1170,200 L-110,200 L-110,-505.5498 Z" id="6" stroke="none" fill="#034C8C" fill-rule="evenodd"></path>
    <path d="M-110,-256.7236 C-110,-256.7236 -28.686,-321.3876 -23.619,-340.1136 C-18.551,-358.8386 18.61,-380.5296 18.61,-380.5296 C18.61,-380.5296 52.174,-385.5346 67.596,-397.2146 C83.018,-408.8936 128.405,-413.8996 133.473,-422.2426 C138.54,-430.5846 202.728,-465.6236 217.931,-462.2866 C233.133,-458.9496 277.051,-447.2696 290.564,-452.2756 C304.078,-457.2806 361.509,-435.5906 361.509,-430.5846 C361.509,-425.5786 488.165,-421.4496 497.609,-428.4826 C507.054,-435.5166 582.068,-477.9376 639.5,-479.6056 C696.932,-481.2746 797.931,-420.3716 797.931,-420.3716 L958.65,-370.5426 L1168.926,-328.8046 L1170,200 L-110,200 L-110,-256.7236 Z" id="5" stroke="none" fill="#0378A6" fill-rule="evenodd"></path>
    <path d="M1168.9258,-235.5527 C1168.9258,-235.5527 1116.5618,-260.8897 1116.5618,-264.4107 C1116.5618,-267.9327 1089.5348,-276.0917 1089.5348,-276.0917 L1038.8608,-281.1597 C1038.8608,-281.1597 947.6468,-318.3207 902.0388,-318.3207 C856.4318,-318.3207 777.0408,-352.1037 726.3668,-367.3067 C705.8038,-373.4757 684.6848,-377.6967 664.9278,-380.0847 C664.9638,-380.0877 664.9998,-393.9997 664.9998,-393.9997 L657.9998,-391.9997 L657.9998,-393.9997 L651.0628,-393.9997 L643.7438,-398.3457 L622.2178,-390.4227 L615.9998,-384.9997 L618.9388,-382.2767 C608.9698,-381.8857 600.1448,-380.8297 592.9238,-379.1307 C564.2078,-372.3737 498.8468,-349.4157 498.8468,-349.4157 L400.0558,-336.5857 C400.0558,-336.5857 321.0658,-325.1877 297.4168,-303.2287 C273.7688,-281.2687 220.0508,-293.7767 189.6458,-290.3987 C159.2408,-287.0197 76.7428,-246.9997 76.7428,-246.9997 C76.7428,-246.9997 15.3978,-211.0657 -16.9152,-194.1737 C-49.2282,-177.2817 -110.0002,-174.9297 -110.0002,-174.9297 L-110.0002,200 L1169.9998,200 L1168.9258,-235.5527 Z" id="4" stroke="none" fill="#049DBF" fill-rule="evenodd"></path>
    <path d="M-110,-82.9556587 C-110,-82.9556587 179.08,-172.479659 283.808,-179.236659 C388.536,-185.993659 430.764,-199.167659 430.764,-199.167659 C430.764,-199.167659 530.647,-221.466659 553.339,-216.398659 C576.032,-211.330659 608.126,-243.425659 630.085,-245.113659 C652.044,-246.803659 744.947,-304.234659 785.487,-300.856659 C826.027,-297.477659 934.133,-273.829659 947.646,-275.518659 C961.159,-277.208659 972.983,-263.694659 972.983,-263.694659 C972.983,-263.694659 1137.291,-263.694659 1170,-243.425659 L1170,200 L-110,200 L-110,-82.9556587 Z" id="3" stroke="none" fill="#04C4D9" fill-rule="evenodd"></path>
    <path d="M-110,21.7199993 C-110,21.7199993 28.701,-76.8878727 187.886,-56.1285346 C347.07,-35.3691965 587.998,35.5592459 691.253,28.6386623 C794.508,21.719285 1003.404,-22.3133352 1170,29.1127409 L1170,200 L-110,200 L-110,21.7199993 Z" id="2" stroke="none" fill="#49EDFF" fill-rule="evenodd"></path>
    <path d="M146,143.486 L146,75.486 L119,75.486 L187.612,-21.687 L257.757,-57.707 L439.754,-95.623 L511.794,12.438 L530,23.81 L612.271,61.486 L667,61.486 C667,61.486 767.728,75 784.79,88.27 C801.853,101.541 784.79,107.228 784.79,107.228 L775.976,103.475 L776.308,133.047 L575.722,147.602 L503.746,134.663 L426.917,179.951 L146,143.486 Z" id="House" stroke="none" fill="#034C8C" fill-rule="evenodd"></path>
    <path d="M-110,148.9352 C-110,148.9352 73.864,126.1862 123.155,120.4982 C172.445,114.8112 174.341,101.5402 198.987,109.1232 C223.632,116.7062 229.319,141.3522 267.236,137.5612 C305.152,133.7692 388.567,124.2892 401.838,135.6642 C415.108,147.0392 525.065,133.3822 568.668,127.8882 C612.271,122.3942 809.436,127.8882 809.436,127.8882 C809.436,127.8882 1082.793,120.7552 1170,101.7972 L1170,200 L-110,200 L-110,148.9352 Z" id="1" stroke="none" fill="#D3FBFF" fill-rule="evenodd"></path>
</svg>