<svg width="86px" height="87px" viewBox="134 755 86 87" version="1.1" xmlns="http://www.w3.org/2000/svg" xmlns:xlink="http://www.w3.org/1999/xlink">
    <defs>
        <path d="M0,36.6967986 C0,56.8687033 16.5565285,73.2192373 36.9825719,73.2192373 C57.4086152,73.2192373 73.963522,56.8687033 73.963522,36.6967986 C73.963522,16.5248939 57.4086152,0.174360002 36.9825719,0.174360002 C16.5565285,0.174360002 0,16.5248939 0,36.6967986 L0,36.6967986 Z" id="path-1"></path>
        <mask id="mask-2" maskContentUnits="userSpaceOnUse" maskUnits="objectBoundingBox" x="-6" y="-6" width="85.963522" height="85.0448773">
            <rect x="-6" y="-5.82564" width="85.963522" height="85.0448773" fill="white"></rect>
            <use xlink:href="#path-1" fill="black"></use>
        </mask>
        <mask id="mask-4" maskContentUnits="userSpaceOnUse" maskUnits="objectBoundingBox" x="-6" y="-6" width="85.963522" height="85.0448773">
            <rect x="-6" y="-5.82564" width="85.963522" height="85.0448773" fill="white"></rect>
            <use xlink:href="#path-1" fill="black"></use>
        </mask>
    </defs>
    <g id="#bw-logo" stroke="none" stroke-width="1" fill="none" fill-rule="evenodd" transform="translate(140.000000, 761.000000)">
        <g id="b-logo-circle" transform="translate(0.000000, 0.066842)">
            <mask id="mask-3" fill="white">
                <use xlink:href="#path-1"></use>
            </mask>
            <g id="Clip-2" stroke="#4A4A4A" mask="url(#mask-2)" stroke-width="12">
                <use mask="url(#mask-4)" xlink:href="#path-1"></use>
            </g>
            <polygon id="Fill-1" mask="url(#mask-3)" points="-8.10879054 81.2271391 82.0723125 81.2271391 82.0723125 -7.83354182 -8.10879054 -7.83354182"></polygon>
        </g>
        <path d="M33.8179682,38.014436 L21.1267606,50.106427 L21.1267606,37.1664448 L33.8028169,25.0888897 L33.8028169,38 L40.1408451,38 L40.1408451,19.0501122 L40.1711477,19.0212402 L40.1408451,19.0212402 L40.1408451,19 L33.8028169,19 L33.8028169,19.0501122 L21.1267606,31.1276673 L21.1267606,19 L14.7887324,19 L14.7887324,56 L14.9411326,56 L14.7887324,56.1452046 L21.1267606,56.1452046 L36.9869823,41.0338247 L52.8472041,56.1452046 L59.1852322,56.1452046 L59.0328321,56 L59.1549296,56 L59.1549296,19 L52.8169014,19 L52.8169014,50.0775551 L40.1559964,38.014436 L40.1711477,38 L36.9869823,38 L33.8028169,38 L33.8179682,38.014436 Z" id="b-logo" fill="#4A4A4A"></path>
    </g>
</svg>
